<?xml version="1.0" encoding="utf-8"?>
<!-- Generator: Adobe Illustrator 23.0.1, SVG Export Plug-In . SVG Version: 6.00 Build 0)  -->
<svg version="1.1" id="Layer_1" xmlns="http://www.w3.org/2000/svg" xmlns:xlink="http://www.w3.org/1999/xlink" x="0px" y="0px"
	 viewBox="0 0 297.3 297.3" style="enable-background:new 0 0 297.3 297.3;" xml:space="preserve">
<style type="text/css">
	.st0{fill:#56C9ED;}
</style>
<path class="st0" d="M265.3,54.6v35.1c0,8.8,7.2,16,16,16s16-7.2,16-16V16c0-8.8-7.2-16-16-16c0,0,0,0,0,0h-73.7
	c-8.8,0-16,7.2-16,16c0,8.8,7.2,16,16,16h35.1l-41.3,41.3C152.3,35.5,81.5,39,36.6,83.9h0c-48.8,48.8-48.8,127.9,0,176.7
	s127.9,48.8,176.7,0c44.9-44.9,48.4-115.7,10.6-164.7L265.3,54.6z M191.1,237.6c-0.1,0.1-0.3,0.3-0.4,0.4
	c-36.3,36.3-95.1,36.2-131.4-0.1s-36.2-95.1,0.1-131.4c36.3-36.2,95.1-36.2,131.3,0C227,142.6,227.2,201.3,191.1,237.6z"/>
</svg>
