<?xml version="1.0" encoding="utf-8"?>
<!-- Generator: Adobe Illustrator 23.0.1, SVG Export Plug-In . SVG Version: 6.00 Build 0)  -->
<svg version="1.1" id="Layer_1" xmlns="http://www.w3.org/2000/svg" xmlns:xlink="http://www.w3.org/1999/xlink" x="0px" y="0px"
	 viewBox="0 0 249.9 362.4" style="enable-background:new 0 0 249.9 362.4;" xml:space="preserve">
<style type="text/css">
	.st0{fill:#F0522D;}
</style>
<path class="st0" d="M124.6,0C55.6,0.2-0.2,56.3,0,125.3c0,63.5,47.6,116.1,109,123.9v25.1h-40c-8.8,0-16,7.2-16,16s7.2,16,16,16h40
	v40c0,8.8,7.2,16,16,16s16-7.2,16-16v-40h40c8.8,0,16-7.2,16-16s-7.2-16-16-16h-40v-25.1c61.4-7.9,109-60.5,109-123.9h0
	c0-0.2,0-0.5,0-0.7C249.7,55.6,193.6-0.2,124.6,0z M125,218.3c-51.3-0.1-92.9-41.6-93-93c0-51.3,41.6-93,93-93c51.3,0,93,41.6,93,93
	C217.9,176.7,176.3,218.3,125,218.3z"/>
</svg>
